<svg width="118" height="62" viewBox="0 0 118 62" fill="none" xmlns="http://www.w3.org/2000/svg">
<path d="M21.704 54.072L0.0320001 38.988V26.532L21.704 11.304V24.228L8.672 32.76L21.704 41.112V54.072ZM18.932 48.564V42.876L6.044 34.524V31.068L18.932 22.572V16.884L2.228 28.404V37.224L18.932 48.564ZM37.3342 54L29.8822 46.584V33.732H40.0702V41.616L42.2662 43.812H52.9942L55.1902 41.616V13.788H36.7582V3.6H65.3782V46.584L57.9262 54H37.3342ZM38.7022 51.084H56.6662L62.7142 45.072V6.3H39.4222V10.944H58.0702V42.84L54.4342 46.476H40.9702L37.2982 42.84V36.432H32.6902V45.072L38.7022 51.084ZM70.9149 61.236L79.9149 -4.29153e-06H90.1029L81.1029 61.236H70.9149ZM74.0469 58.5H78.6909L87.0429 2.628H82.3989L74.0469 58.5ZM96.0086 54.072V41.112L109.041 32.76L96.0086 24.228V11.304L117.681 26.532V38.988L96.0086 54.072ZM98.7806 48.564L115.485 37.224V28.404L98.7806 16.884V22.572L111.669 31.068V34.524L98.7806 42.876V48.564Z" fill="white"/>
</svg>
